<?xml version="1.0" encoding="UTF-8"?>
<svg xmlns="http://www.w3.org/2000/svg" viewBox="0 0 44 44" width="44" height="44" role="img" aria-label="PoolOps icon">
  <rect x="0" y="0" width="44" height="44" rx="12" fill="#111827"></rect>
  <g transform="translate(6 6)" fill="#F5F5F3">
    <path d="M16 6C16 6 8 12 8 19C8 23.4 11.6 27 16 27C20.4 27 24 23.4 24 19C24 12 16 6 16 6Z" opacity="0.92"></path>
    <path d="M16 13C16 13 12 16.5 12 19.5C12 21.7 13.8 23.5 16 23.5C18.2 23.5 20 21.7 20 19.5C20 16.5 16 13 16 13Z" opacity="0.42"></path>
  </g>
</svg>